<svg xmlns="http://www.w3.org/2000/svg" width="2840" height="720" fill="none" viewBox="0 0 2840 720">
  <path fill="#fff" d="M719.46 340.29c-1.31-24.39-5.05-48.14-10.99-71a353.494 353.494 0 0 0-12.94-40C670.07 163.96 626.07 107.89 570 67.57c-36.75-26.45-78.69-46.13-124-57.23C418.44 3.58 389.64 0 360 0s-58.44 3.58-86 10.34c-45.31 11.1-87.25 30.79-124 57.23C93.93 107.9 49.93 163.96 24.47 229.29c-5.06 12.98-9.4 26.33-12.94 40-5.94 22.86-9.68 46.61-10.99 71C.18 346.82 0 353.39 0 360c0 6.81.19 13.57.57 20.29 1.31 23.68 4.91 46.76 10.59 69 3.49 13.66 7.76 27.01 12.77 40C49.3 555.23 93.52 611.81 150 652.43c36.75 26.44 78.69 46.13 124 57.23 27.56 6.76 56.36 10.34 86 10.34s58.44-3.58 86-10.34c45.31-11.1 87.25-30.78 124-57.23 56.48-40.62 100.7-97.2 126.08-163.14 5.01-12.99 9.27-26.34 12.76-40 5.68-22.24 9.28-45.32 10.59-69 .38-6.72.57-13.48.57-20.29 0-6.61-.18-13.18-.54-19.71z"/>
  <path fill="#000" d="m248.981 342.319 93.34-93.34c7.81-7.81 7.81-20.47 0-28.28-7.81-7.81-20.47-7.81-28.28 0l-93.34 93.34c-7.81 7.81-7.81 20.47 0 28.28 7.81 7.81 20.47 7.81 28.28 0zM469.6 376.26l-93.34 93.34c-7.81 7.81-7.81 20.47 0 28.28 7.81 7.81 20.47 7.81 28.28 0l93.34-93.34c7.81-7.81 7.81-20.47 0-28.28-7.8-7.81-20.47-7.81-28.28 0zm10.61-164.75-268.7 268.7c-7.81 7.81-7.81 20.47 0 28.28 7.81 7.81 20.47 7.81 28.28 0l268.7-268.7c7.81-7.81 7.81-20.47 0-28.28-7.81-7.81-20.47-7.81-28.28 0z"/>
  <path fill="#fff" d="M1093.45 78.55c14.8 6.8 26.3 16.5 34.3 29.1 8 12.6 12 27.4 12 44.6 0 17-4 31.8-12 44.4-8 12.7-19.5 22.4-34.3 29.1-14.8 6.7-32.3 10.1-52.5 10.1h-43.901c-1.1 0-2 .9-2 2v59.8c0 1.1-.9 2-2 2h-48.6c-1.1 0-2-.9-2-2V70.35c0-1.1.9-2 2-2h96.501c20.1 0 37.6 3.4 52.5 10.2zm-19.4 103.3c8.2-6.9 12.4-16.8 12.4-29.6 0-13-4.1-23-12.4-29.9-8.2-6.9-20.3-10.4-36.1-10.4h-40.901c-1.1 0-2 .9-2 2v76.3c0 1.1.9 2 2 2h40.901c15.9 0 27.9-3.5 36.1-10.4zm301.5 45.4c-.7-1-.3-2.4.8-3 13.9-6.6 24.7-15.8 32.5-27.6 8.1-12.4 12.2-27.3 12.2-44.4 0-17.2-4-32.1-12-44.6-8-12.6-19.5-22.2-34.3-29.1-14.9-6.8-32.4-10.2-52.6-10.2h-96.5c-1.1 0-2 .9-2 2v39.6c0 1.1.9 2 2 2h93.6c15.8 0 27.8 3.5 36.1 10.4 8.2 6.9 12.4 16.9 12.4 29.9 0 12.8-4.1 22.7-12.4 29.7-8.2 7.1-20.3 10.6-36.1 10.6h-93.6c-1.1 0-2 .9-2 2v103.1c0 1.1.9 2 2 2h48.7c1.1 0 2-.9 2-2v-60.4c0-1.1.9-2 2-2h45.3c.7 0 1.3.3 1.7.9l42.7 62.7c.4.5 1 .9 1.7.9h51.7c1.6 0 2.6-1.8 1.6-3.1l-47.5-69.4zm-284.2 305.1h44.1c1.1 0 2 .9 2 2v90.9c0 .6-.3 1.2-.8 1.6-12.2 9.2-26.2 16.2-42.1 21.2-16.3 5.1-32.6 7.6-49.1 7.6-23.6 0-44.9-5.1-63.7-15.4-18.8-10.3-33.6-24.5-44.4-42.6-10.7-18.2-16.1-38.8-16.1-61.7 0-22.9 5.4-43.5 16.1-61.6 10.7-18.2 25.6-32.4 44.7-42.6 19.1-10.2 40.5-15.4 64.4-15.4 19.9 0 38 3.4 54.3 10.2 15.6 6.6 28.9 16 39.7 28.3.7.8.6 2-.1 2.8l-31 29.1c-.8.8-2 .7-2.8-.1-16-16.4-35.1-24.7-57.5-24.7-14.5 0-27.4 3.1-38.7 9.3-11.3 6.2-20 14.9-26.3 26.1-6.3 11.2-9.4 24.1-9.4 38.7 0 14.3 3.1 27.1 9.4 38.3 6.3 11.2 15 20 26.2 26.3 11.2 6.3 23.9 9.4 38.2 9.4 14.7 0 28-3.1 39.9-9.3.7-.3 1.1-1 1.1-1.8v-64.6c-.1-1.1.8-2 1.9-2zm750.1-237.5c-12.4-5.6-22.6-13.5-30.7-23.7-.6-.7-.6-1.8 0-2.5l26.6-32.5c.8-1 2.3-1 3.1 0 12 15.6 25.6 23.4 40.8 23.4 21.5 0 32.2-12.8 32.2-38.3v-108c0-1.1-.9-2-2-2h-76c-1.1 0-2-.9-2-2v-38.9c0-1.1.9-2 2-2h128.3c1.1 0 2 .9 2 2v148c0 28.4-6.9 49.7-20.8 63.9-13.9 14.2-34.2 21.3-61.1 21.3-15.4.1-29.5-2.9-42.4-8.7zm-306.6 125.4h48.7c1.1 0 2 .9 2 2v183.7c0 1.1.9 2 2 2h110.1c1.1 0 2 .9 2 2v39.6c0 1.1-.9 2-2 2h-162.8c-1.1 0-2-.9-2-2v-227.3c0-1.1.9-2 2-2zm1176.4-308.3h-68.8c-1.1 0-2-.9-2-2v-39.6c0-1.1.9-2 2-2h194.3c1.1 0 2 .9 2 2v39.6c0 1.1-.9 2-2 2h-68.8c-1.1 0-2 .9-2 2v183.7c0 1.1-.9 2-2 2h-48.7c-1.1 0-2-.9-2-2v-183.7c0-1.1-.9-2-2-2zm-219.2 458.3v79.4c0 1.1-.9 2-2 2h-48.7c-1.1 0-2-.9-2-2v-80.1c0-.4-.1-.7-.3-1l-86-145.2c-.8-1.3.2-3 1.7-3h51.3c.7 0 1.4.4 1.7 1l58.5 98.9c.8 1.3 2.7 1.3 3.4 0l58.5-98.9c.4-.6 1-1 1.7-1h47c1.5 0 2.5 1.7 1.7 3l-86.4 145.9c0 .2-.1.6-.1 1zm-948.7-282.2c-19-10.4-33.8-24.6-44.5-42.8-10.7-18.2-16.1-38.6-16.1-61.3 0-22.7 5.4-43.1 16.1-61.3 10.7-18.2 25.6-32.4 44.5-42.8 19-10.3 40.3-15.5 63.9-15.5s44.9 5.2 63.7 15.5c18.9 10.4 33.7 24.6 44.5 42.8 10.8 18.2 16.3 38.6 16.3 61.3 0 22.7-5.4 43.1-16.3 61.3-10.8 18.2-25.7 32.4-44.5 42.8-18.9 10.4-40.1 15.5-63.7 15.5-23.6.1-44.9-5.1-63.9-15.5zm100.3-39.5c10.8-6.3 19.3-15 25.5-26.3 6.2-11.3 9.3-24 9.3-38.3 0-14.3-3.1-27.1-9.3-38.3-6.2-11.2-14.7-20-25.5-26.3-10.8-6.3-23-9.4-36.4-9.4-13.4 0-25.6 3.1-36.4 9.4-10.8 6.3-19.3 15-25.5 26.3-6.2 11.2-9.3 24-9.3 38.3 0 14.3 3.1 27.1 9.3 38.3 6.2 11.2 14.7 20 25.5 26.3 10.8 6.3 23 9.4 36.4 9.4 13.4.1 25.6-3.1 36.4-9.4zm-295.5 171.7h-49.4c-.8 0-1.5.5-1.8 1.2l-99.7 227.3c-.6 1.3.4 2.8 1.8 2.8h49.6c.8 0 1.5-.5 1.9-1.2l19.7-48.3 16.9-40.6 34.2-84c.7-1.7 3-1.7 3.7 0l34.2 84 16.6 40.6 19.6 48.3c.3.8 1 1.2 1.9 1.2h50.9c1.4 0 2.4-1.5 1.8-2.8l-100-227.3c-.4-.7-1.2-1.2-1.9-1.2zm737.1-161.601v39c0 1.1.9 2 2 2h172.2c1.1 0 2-.9 2-2v-39c0-1.1-.9-2-2-2h-172.2c-1.1 0-2 .9-2 2zm176.2-149.999v-38.3c0-1.1-.9-2-2-2h-172.2c-1.1 0-2 .9-2 2v38.4c0 1.1.9 2 2 2h172.2c1.1-.1 2-1 2-2.1zm-176.2 54.999v37.3c0 1.1.9 2 2 2h172.4c1.1 0 2-.9 2-2v-37.3c0-1.1-.9-2-2-2h-172.4c-1.1 0-2 .9-2 2zm-167.7 256.601h-49.4c-.8 0-1.5.5-1.8 1.2l-99.7 227.3c-.6 1.3.4 2.8 1.8 2.8h49.6c.8 0 1.5-.5 1.9-1.2l19.7-48.3 16.9-40.6 34.2-84c.7-1.7 3-1.7 3.7 0l34.2 84 16.6 40.6 19.6 48.3c.3.8 1 1.2 1.9 1.2h50.9c1.4 0 2.4-1.5 1.8-2.8l-100-227.3c-.4-.7-1.1-1.2-1.9-1.2zm491.4-132c-18.7-10.2-33.5-24.5-44.2-42.6-10.7-18.2-16.1-38.7-16.1-61.6s5.4-43.5 16.1-61.6c10.7-18.2 25.5-32.4 44.2-42.6 18.8-10.4 39.8-15.5 63.3-15.5 19.7 0 37.6 3.5 53.5 10.6 15.3 6.8 28.3 16.4 38.9 28.9.7.8.6 2-.2 2.8l-30.9 29c-.8.8-2.1.7-2.9-.1-15.2-17-33.8-25.5-55.9-25.5-14.1 0-26.7 3.1-37.7 9.4-11.1 6.3-19.7 15-25.8 26.3-6.2 11.2-9.3 24-9.3 38.3 0 14.3 3.1 27.1 9.3 38.3 6.2 11.2 14.8 20 25.8 26.3 11.1 6.3 23.6 9.4 37.7 9.4 22.1 0 40.7-8.6 55.9-25.8.8-.9 2.1-.9 2.9-.2l30.9 29c.8.7.9 1.9.2 2.7-10.6 12.7-23.7 22.5-39.1 29.3-16 7-33.9 10.6-53.6 10.6-23.3 0-44.2-5.2-63-15.4zm-262.1 167.1-23.9-34.2c-.4-.5-1-.9-1.6-.9h-54.9c-1.6 0-2.6 1.8-1.6 3.2l49.5 70.3c.8 1.1 2.4 1.1 3.2.1l29.4-36.1c.4-.6.4-1.6-.1-2.4zm83.3 118.5-28.9 36.7c-.5.7-.6 1.6-.1 2.4l25.9 37.9c.4.5 1 .9 1.7.9h55.9c1.6 0 2.6-1.8 1.6-3.2l-52.9-74.5c-.7-1.2-2.3-1.3-3.2-.2zm-26.5-41.9 77.1-108.5c.9-1.3 0-3.2-1.6-3.2h-52c-.7 0-1.3.3-1.7.9l-50.7 74.1c0 .1-.1.1-.1.1l-32.1 38.5-.1.1-81.9 114.4c-.9 1.3 0 3.2 1.6 3.2h55.5c.7 0 1.3-.3 1.7-.9l53.3-79.4.1-.1 30.9-39.2z"/>
</svg>
